# xmcd
#
# Track frame offsets:
#	150
#	36511
#	52181
#
# Disc length: 1179 seconds
#
# Revision: 2
# Processed by: cddbd v1.5.2PL0 Copyright (c) Steve Scherf et al.
# Submitted via: EasyCDDAExtractor 2010.6.0.0
#
DISCID=28049903
DTITLE=Change - Angel In My Pocket
DYEAR=2008
DGENRE=Dance
TTITLE0=Angel In My Pocket (Soul Seekerz Remix)
TTITLE1=Angel In My Pocket (Soul Seekerz Radio Mix)
TTITLE2=Angel In My Pocket (Nicky Holloway's Pablo Discobar Mix)
EXTD=
EXTT0=
EXTT1=
EXTT2=
PLAYORDER=
